#N canvas 547 277 530 329 10;
#X obj 42 126 /~;
#X obj 42 148 *~ 0.5;
#X obj 42 170 *~;
#X obj 261 126 /~;
#X obj 344 88 *~ -1;
#X obj 344 110 +~ 1;
#X obj 261 148 *~ 0.5;
#X obj 261 170 +~ 0.5;
#X obj 261 192 *~;
#X obj 261 97 -~;
#X obj 42 271 outlet~;
#N canvas 1 82 357 246 smaller_than~ 0;
#X obj 93 152 outlet~;
#X obj 153 48 inlet~;
#X obj 93 100 -~;
#X obj 93 48 inlet~;
#X obj 93 122 /~;
#X obj 128 84 max~;
#X connect 1 0 5 1;
#X connect 2 0 4 0;
#X connect 2 0 4 1;
#X connect 3 0 2 0;
#X connect 3 0 5 0;
#X connect 4 0 0 0;
#X connect 5 0 2 1;
#X restore 94 154 pd smaller_than~;
#N canvas 1 82 450 300 greater_than~ 0;
#X obj 93 152 outlet~;
#X obj 153 48 inlet~;
#X obj 93 100 -~;
#X obj 93 48 inlet~;
#X obj 93 122 /~;
#X obj 128 84 min~;
#X connect 1 0 5 1;
#X connect 2 0 4 0;
#X connect 2 0 4 1;
#X connect 3 0 2 0;
#X connect 3 0 5 0;
#X connect 4 0 0 0;
#X connect 5 0 2 1;
#X restore 319 176 pd greater_than~;
#X obj 344 51 inlet~;
#X obj 42 51 inlet~;
#X connect 0 0 1 0;
#X connect 1 0 2 0;
#X connect 2 0 10 0;
#X connect 3 0 6 0;
#X connect 4 0 5 0;
#X connect 5 0 3 1;
#X connect 6 0 7 0;
#X connect 7 0 8 0;
#X connect 8 0 10 0;
#X connect 9 0 3 0;
#X connect 11 0 2 1;
#X connect 12 0 8 1;
#X connect 13 0 0 1;
#X connect 13 0 4 0;
#X connect 13 0 9 1;
#X connect 13 0 11 1;
#X connect 13 0 12 1;
#X connect 14 0 0 0;
#X connect 14 0 9 0;
#X connect 14 0 11 0;
#X connect 14 0 12 0;
