#N canvas 269 343 601 418 10;
#X obj 76 100 until;
#X obj 76 150 f;
#X obj 105 150 + 1;
#X msg 93 128 1;
#X obj 174 312 list prepend sinesum;
#X obj 76 204 sel;
#X obj 174 340 list trim;
#X msg 95 294 normalize;
#X obj 107 225 \$2;
#X obj 174 368 s \$1;
#X obj 76 28 inlet;
#X obj 76 50 \$3;
#X text 352 57 Arguments:;
#X text 404 74 1st: table name;
#X text 406 89 2nd: table size;
#X text 406 104 3rd number of partials;
#X text 352 41 Sawtooth wave partials generator;
#N canvas 460 290 450 300 make-list 0;
#X obj 158 72 list prepend;
#X obj 158 164 t l l;
#X obj 229 181 spigot;
#X obj 158 225 spigot;
#X obj 84 12 inlet done;
#X obj 158 12 inlet nums;
#X obj 158 247 outlet;
#X obj 262 159 == 0;
#X obj 235 137 t f f;
#X msg 235 115 1;
#X obj 272 55 t b b b;
#X msg 311 78 0;
#X obj 272 12 inlet init;
#X obj 84 98 t b b;
#X connect 0 0 1 0;
#X connect 1 0 3 0;
#X connect 1 1 2 0;
#X connect 2 0 0 1;
#X connect 3 0 6 0;
#X connect 4 0 13 0;
#X connect 5 0 0 0;
#X connect 7 0 2 1;
#X connect 8 0 3 1;
#X connect 8 1 7 0;
#X connect 9 0 8 0;
#X connect 10 0 0 1;
#X connect 10 2 11 0;
#X connect 11 0 8 0;
#X connect 12 0 10 0;
#X connect 13 0 0 0;
#X connect 13 1 9 0;
#X restore 174 289 pd make-list;
#X obj 122 202 inlet size;
#X obj 203 33 inlet partials;
#N canvas 0 22 374 351 fibonacci 0;
#X obj 82 213 +;
#X obj 82 188 t f f;
#X obj 82 164 1;
#X obj 101 115 f;
#X obj 82 64 inlet;
#X obj 174 32 inlet start;
#X obj 128 162 outlet;
#X msg 174 98 0;
#X msg 201 78 1;
#X obj 82 89 t b b f;
#X obj 174 57 t b b;
#X obj 101 137 t f f;
#X connect 0 0 2 1;
#X connect 1 0 0 0;
#X connect 1 1 3 1;
#X connect 2 0 1 0;
#X connect 3 0 11 0;
#X connect 4 0 9 0;
#X connect 5 0 10 0;
#X connect 7 0 3 1;
#X connect 8 0 2 1;
#X connect 9 0 2 0;
#X connect 9 1 3 0;
#X connect 10 0 7 0;
#X connect 10 1 8 0;
#X connect 11 0 0 1;
#X connect 11 1 6 0;
#X restore 208 195 pd fibonacci;
#X obj 76 73 t f b b f b b;
#X obj 76 178 t f f;
#X obj 76 272 t b b b;
#X obj 76 368 outlet;
#X connect 0 0 1 0;
#X connect 1 0 2 0;
#X connect 1 0 22 0;
#X connect 2 0 1 1;
#X connect 3 0 1 1;
#X connect 4 0 6 0;
#X connect 5 0 23 0;
#X connect 6 0 9 0;
#X connect 7 0 9 0;
#X connect 8 0 17 1;
#X connect 10 0 11 0;
#X connect 11 0 21 0;
#X connect 17 0 4 0;
#X connect 18 0 8 1;
#X connect 19 0 11 1;
#X connect 20 0 17 1;
#X connect 21 0 0 0;
#X connect 21 1 3 0;
#X connect 21 2 8 0;
#X connect 21 3 5 1;
#X connect 21 4 17 2;
#X connect 21 5 20 1;
#X connect 22 0 5 0;
#X connect 22 1 20 0;
#X connect 23 0 24 0;
#X connect 23 1 7 0;
#X connect 23 2 17 0;
