#N canvas 301 153 838 336 10;
#N canvas 0 50 450 278 (subpatch) 0;
#X array impulse 2051 float 2;
#X coords 0 1 2051 -1 200 140 1;
#X restore 222 99 graph;
#X msg 21 78 bang;
#X floatatom 21 147 5 0 0 0 - - -, f 5;
#X obj 21 208 *~ 0.2;
#X obj 21 234 dac~;
#X floatatom 60 188 5 0 0 0 - - -, f 5;
#X obj 17 13 cnv 15 440 40 empty empty empty 20 12 0 14 -204056 -66577
0;
#X text 465 27 Arguments:;
#X text 524 50 1st: array name;
#X text 525 65 2nd: array size (must be a power of 2);
#X text 525 81 3rd: number of partials;
#X text 475 116 Inlets:;
#X text 516 135 1st: bang to generate waveform;
#X text 517 151 2nd: array size;
#X text 517 167 3rd: number of partials;
#X obj 21 100 bl_impulse impulse 2048 40;
#X obj 21 166 tabosc4~ impulse;
#X text 24 18 [bl_sawtooth]:vanilla abstraction which calculates partial
amplitudes for a band limited impulse \, using Pd's sinesum;
#X text 483 198 Outlet: bang when done;
#X obj 21 122 bng 15 250 50 0 empty empty empty 17 7 0 10 -262144 -1
-1;
#X text 550 281 Written by Alexandros Drymonitis;
#X connect 1 0 15 0;
#X connect 2 0 16 0;
#X connect 3 0 4 0;
#X connect 3 0 4 1;
#X connect 5 0 3 1;
#X connect 15 0 19 0;
#X connect 16 0 3 0;
