#N canvas 62 82 695 583 10;
#X obj 39 109 until;
#X obj 39 167 f;
#X obj 68 167 + 1;
#X msg 57 143 1;
#X obj 177 238 swap 1;
#X obj 177 262 /;
#X obj 137 401 list prepend sinesum;
#X obj 39 262 sel;
#X obj 39 221 t f f;
#X obj 137 457 list trim;
#X msg 62 372 normalize;
#X obj 39 197 t f f;
#X obj 257 214 % 2;
#X obj 177 284 *;
#X obj 76 268 \$2;
#X obj 137 480 s \$1;
#X text 274 34 Arguments:;
#X text 333 51 1st: table name;
#X text 334 67 2nd: table size (must be a power of two);
#X text 334 82 3rd: number of partials;
#X text 273 16 Square wave partial generator;
#X text 281 114 Square wave partials amplitudes are 1/N \, where N
is the number of the partial. Only odd partials go through \, even
are 0;
#X text 284 214 Let only odd partials through;
#X obj 39 48 \$3;
#X obj 39 25 inlet;
#X obj 94 244 inlet size;
#X obj 145 31 inlet partials;
#N canvas 433 222 450 300 make-list 0;
#X obj 158 72 list prepend;
#X obj 158 164 t l l;
#X obj 239 181 spigot;
#X obj 158 225 spigot;
#X obj 74 12 inlet done;
#X obj 158 12 inlet nums;
#X obj 158 247 outlet;
#X obj 278 159 == 0;
#X obj 245 137 t f f;
#X msg 245 115 1;
#X msg 304 78 0;
#X obj 272 12 inlet init;
#X obj 272 55 t b b;
#X obj 74 98 t b b;
#X connect 0 0 1 0;
#X connect 1 0 3 0;
#X connect 1 1 2 0;
#X connect 2 0 0 1;
#X connect 3 0 6 0;
#X connect 4 0 13 0;
#X connect 5 0 0 0;
#X connect 7 0 2 1;
#X connect 8 0 3 1;
#X connect 8 1 7 0;
#X connect 9 0 8 0;
#X connect 10 0 8 0;
#X connect 11 0 12 0;
#X connect 12 0 0 1;
#X connect 12 1 10 0;
#X connect 13 0 0 0;
#X connect 13 1 9 0;
#X restore 137 364 pd make-list;
#X obj 39 70 t f b b f b;
#X obj 39 347 t b b b;
#X obj 39 480 outlet done;
#X obj 137 423 t l l;
#X obj 222 440 outlet list;
#X connect 0 0 1 0;
#X connect 1 0 2 0;
#X connect 1 0 11 0;
#X connect 2 0 1 1;
#X connect 3 0 1 1;
#X connect 4 0 5 0;
#X connect 4 1 5 1;
#X connect 5 0 13 0;
#X connect 6 0 31 0;
#X connect 7 0 29 0;
#X connect 8 0 7 0;
#X connect 8 1 4 0;
#X connect 9 0 15 0;
#X connect 10 0 15 0;
#X connect 11 0 8 0;
#X connect 11 1 12 0;
#X connect 12 0 13 1;
#X connect 13 0 27 1;
#X connect 14 0 27 1;
#X connect 23 0 28 0;
#X connect 24 0 23 0;
#X connect 25 0 14 1;
#X connect 26 0 23 1;
#X connect 27 0 6 0;
#X connect 28 0 0 0;
#X connect 28 1 3 0;
#X connect 28 2 14 0;
#X connect 28 3 7 1;
#X connect 28 4 27 2;
#X connect 29 0 30 0;
#X connect 29 1 10 0;
#X connect 29 2 27 0;
#X connect 31 0 9 0;
#X connect 31 1 32 0;
