#N canvas 441 77 647 403 10;
#X obj 76 80 until;
#X obj 76 130 f;
#X obj 105 130 + 1;
#X msg 93 108 1;
#X obj 174 292 list prepend sinesum;
#X obj 76 184 sel;
#X obj 174 320 list trim;
#X msg 95 274 normalize;
#X obj 107 205 \$2;
#X obj 174 348 s \$1;
#X obj 76 8 inlet;
#X obj 76 30 \$3;
#X text 352 37 Arguments:;
#X text 404 54 1st: table name;
#X text 406 69 2nd: table size;
#X text 406 84 3rd number of partials;
#X obj 76 158 t f f;
#X obj 208 175 swap 1;
#X obj 208 197 /;
#X text 352 21 Sawtooth wave partials generator;
#X text 243 123 Sawtooth wave partials amplitudes are 1/N \, where
N is the number of the partial;
#N canvas 435 224 450 300 make-list 0;
#X obj 158 72 list prepend;
#X obj 229 202 t b l;
#X obj 229 225 list;
#X obj 158 164 t l l;
#X obj 229 181 spigot;
#X obj 158 225 spigot;
#X obj 84 12 inlet done;
#X obj 158 12 inlet nums;
#X obj 158 247 outlet;
#X obj 262 159 == 0;
#X obj 235 137 t f f;
#X msg 235 115 1;
#X obj 272 55 t b b b;
#X msg 311 78 0;
#X obj 272 12 inlet init;
#X obj 184 93 t b b b b;
#X connect 0 0 3 0;
#X connect 1 0 2 0;
#X connect 1 1 2 1;
#X connect 2 0 0 1;
#X connect 3 0 5 0;
#X connect 3 1 4 0;
#X connect 4 0 1 0;
#X connect 5 0 8 0;
#X connect 6 0 15 0;
#X connect 7 0 0 0;
#X connect 9 0 4 1;
#X connect 10 0 5 1;
#X connect 10 1 9 0;
#X connect 11 0 10 0;
#X connect 12 0 0 1;
#X connect 12 1 2 1;
#X connect 12 2 13 0;
#X connect 13 0 10 0;
#X connect 14 0 12 0;
#X connect 15 0 2 1;
#X connect 15 1 0 1;
#X connect 15 2 0 0;
#X connect 15 3 11 0;
#X restore 174 269 pd make-list;
#X obj 76 53 t f b b f b;
#X obj 122 182 inlet size;
#X obj 203 13 inlet partials;
#X obj 76 252 t b b b;
#X obj 76 348 outlet done;
#X connect 0 0 1 0;
#X connect 1 0 2 0;
#X connect 1 0 16 0;
#X connect 2 0 1 1;
#X connect 3 0 1 1;
#X connect 4 0 6 0;
#X connect 5 0 25 0;
#X connect 6 0 9 0;
#X connect 7 0 9 0;
#X connect 8 0 21 1;
#X connect 10 0 11 0;
#X connect 11 0 22 0;
#X connect 16 0 5 0;
#X connect 16 1 17 0;
#X connect 17 0 18 0;
#X connect 17 1 18 1;
#X connect 18 0 21 1;
#X connect 21 0 4 0;
#X connect 22 0 0 0;
#X connect 22 1 3 0;
#X connect 22 2 8 0;
#X connect 22 3 5 1;
#X connect 22 4 21 2;
#X connect 23 0 8 1;
#X connect 24 0 11 1;
#X connect 25 0 26 0;
#X connect 25 1 7 0;
#X connect 25 2 21 0;
