#N canvas 205 22 713 574 10;
#X obj 16 105 until;
#X obj 16 153 f;
#X obj 44 153 + 1;
#X msg 31 130 1;
#X obj 138 262 swap 1;
#X obj 138 288 /;
#X obj 104 465 list prepend sinesum;
#X obj 16 282 sel;
#X obj 16 198 t f f;
#X obj 104 493 list trim;
#X msg 35 446 normalize;
#X obj 16 176 t f f;
#X obj 254 193 % 2;
#X obj 138 311 *;
#X obj 138 215 t f f;
#X obj 138 240 *;
#X obj 138 334 t f f;
#X obj 218 276 > 0;
#X obj 218 297 sel 1;
#X obj 218 343 f;
#X obj 246 343 + 1;
#X msg 233 321 1;
#X obj 218 364 % 2;
#X obj 218 385 * 2;
#X obj 218 406 - 1;
#X obj 138 357 *;
#X obj 47 338 \$2;
#X obj 104 521 s \$1;
#X text 321 138 Triangle wave partials. Their amplitudes are 1/N^2
\, where N is the number of the partial. Only odd partials go through
\, even are 0;
#X text 280 194 Let only odd partials thgough;
#X text 264 322 Alternate the sign of every odd partial;
#X obj 16 52 \$3;
#X text 293 40 Triangle wave partial generator;
#X text 294 58 Arguments:;
#X text 353 75 1st: table name;
#X text 354 91 2nd: table size (must be a power of two);
#X text 354 106 3rd: number of partials;
#X obj 16 30 inlet;
#X obj 62 315 inlet size;
#X obj 163 35 inlet partials;
#N canvas 435 224 450 300 make-list 0;
#X obj 158 72 list prepend;
#X obj 229 202 t b l;
#X obj 229 225 list;
#X obj 158 164 t l l;
#X obj 229 181 spigot;
#X obj 158 225 spigot;
#X obj 84 12 inlet done;
#X obj 158 12 inlet nums;
#X obj 158 247 outlet;
#X obj 262 159 == 0;
#X obj 235 137 t f f;
#X msg 235 115 1;
#X obj 272 55 t b b b;
#X msg 311 78 0;
#X obj 272 12 inlet init;
#X obj 184 93 t b b b b;
#X connect 0 0 3 0;
#X connect 1 0 2 0;
#X connect 1 1 2 1;
#X connect 2 0 0 1;
#X connect 3 0 5 0;
#X connect 3 1 4 0;
#X connect 4 0 1 0;
#X connect 5 0 8 0;
#X connect 6 0 15 0;
#X connect 7 0 0 0;
#X connect 9 0 4 1;
#X connect 10 0 5 1;
#X connect 10 1 9 0;
#X connect 11 0 10 0;
#X connect 12 0 0 1;
#X connect 12 1 2 1;
#X connect 12 2 13 0;
#X connect 13 0 10 0;
#X connect 14 0 12 0;
#X connect 15 0 2 1;
#X connect 15 1 0 1;
#X connect 15 2 0 0;
#X connect 15 3 11 0;
#X restore 104 432 pd make-list;
#X obj 16 76 t f b b f b b;
#X obj 16 415 t b b b;
#X obj 16 521 outlet done;
#X connect 0 0 1 0;
#X connect 1 0 2 0;
#X connect 1 0 11 0;
#X connect 2 0 1 1;
#X connect 3 0 1 1;
#X connect 4 0 5 0;
#X connect 4 1 5 1;
#X connect 5 0 13 0;
#X connect 6 0 9 0;
#X connect 7 0 42 0;
#X connect 8 0 7 0;
#X connect 8 1 14 0;
#X connect 9 0 27 0;
#X connect 10 0 27 0;
#X connect 11 0 8 0;
#X connect 11 1 12 0;
#X connect 12 0 13 1;
#X connect 13 0 16 0;
#X connect 14 0 15 0;
#X connect 14 1 15 1;
#X connect 15 0 4 0;
#X connect 16 0 25 0;
#X connect 16 1 17 0;
#X connect 17 0 18 0;
#X connect 18 0 19 0;
#X connect 19 0 20 0;
#X connect 19 0 22 0;
#X connect 20 0 19 1;
#X connect 21 0 19 1;
#X connect 22 0 23 0;
#X connect 23 0 24 0;
#X connect 24 0 25 1;
#X connect 25 0 40 1;
#X connect 26 0 40 1;
#X connect 31 0 41 0;
#X connect 37 0 31 0;
#X connect 38 0 26 1;
#X connect 39 0 31 1;
#X connect 40 0 6 0;
#X connect 41 0 0 0;
#X connect 41 1 3 0;
#X connect 41 2 26 0;
#X connect 41 3 7 1;
#X connect 41 4 40 2;
#X connect 41 5 21 0;
#X connect 42 0 43 0;
#X connect 42 1 10 0;
#X connect 42 2 40 0;
